<?xml version="1.0" encoding="UTF-8"?><svg xmlns="http://www.w3.org/2000/svg" viewBox="0 0 512 446.19"><defs><style>.g{opacity:.1;}.g,.h{fill:#14546f;fill-rule:evenodd;}.i{fill:#ffeb9a;}.j{fill:#f91;}.k{fill:#feda44;}.h{opacity:.9;}.l{isolation:isolate;}</style></defs><g id="a"/><g id="b"><g id="c"><g id="d"><g id="e" transform="translate(0.000000, 1.000000)"><path class="h" d="M377,352.08c5.76,0,11.51-2.1,15.94-6.31l112.49-107.22c8.76-8.44,8.76-21.99,0-30.36l-112.49-107.29c-8.79-8.37-23.02-8.37-31.82,0-8.76,8.44-8.76,22.02,0,30.33l96.58,92.15-96.58,92.09c-8.76,8.37-8.76,21.99,0,30.33,4.4,4.17,10.15,6.27,15.88,6.27h0Z"/><path class="h" d="M136.46,348.52c-5.82,0-11.61-2-16.07-6.14L6.67,236.71c-8.89-8.25-8.89-21.63,0-29.84L120.39,101.19c8.86-8.28,23.28-8.28,32.17,0,8.83,8.28,8.83,21.63,0,29.88L54.91,221.77l97.65,90.67c8.83,8.28,8.83,21.66,0,29.94-4.46,4.11-10.31,6.14-16.1,6.14h0Z"/><path class="g" d="M213.54,445.72c7.86-1.84,14.42-8.05,16.26-16.49L318.6,25.24c2.52-11.45-4.56-22.54-15.78-24.83-11.32-2.26-22.41,5.17-24.9,16.62l-88.79,403.99c-2.52,11.38,4.59,22.47,15.78,24.77,2.97,.58,5.92,.52,8.63-.06h0Z"/></g><g id="f" class="l"><polygon class="j" points="325.72 243.17 365.12 220.27 206.62 377.15 167.22 400.04 325.72 243.17"/><polygon class="i" points="249.14 198.95 288.53 176.06 365.12 220.27 325.72 243.17 249.14 198.95"/><polygon class="j" points="305.15 119.11 344.54 96.22 288.53 176.06 249.14 198.95 305.15 119.11"/><polygon class="i" points="219.3 69.55 258.69 46.65 344.54 96.22 305.15 119.11 219.3 69.55"/><polygon class="k" points="325.72 243.17 167.22 400.04 230.43 241.57 146.88 193.33 219.3 69.55 305.15 119.11 249.14 198.95 325.72 243.17"/></g></g></g></g></svg>